<?xml version="1.0" encoding="UTF-8" standalone="no"?> <svg width="64" height="64" viewBox="0 0 64 64" fill="none" xmlns="http://www.w3.org/2000/svg">
<path d="M56 3.5H34.76C33.6914 3.50147 32.647 3.81822 31.7576 4.41057C30.8682 5.00292 30.1733 5.84454 29.76 6.83L24.65 17.2C24.5407 17.4292 24.491 17.6822 24.5054 17.9357C24.5198 18.1893 24.5979 18.435 24.7325 18.6504C24.867 18.8657 25.0537 19.0436 25.2753 19.1676C25.4968 19.2917 25.7461 19.3578 26 19.36H60C60.3978 19.36 60.7794 19.202 61.0607 18.9207C61.342 18.6394 61.5 18.2578 61.5 17.86V9C61.4974 7.54212 60.9171 6.14471 59.8862 5.11383C58.8553 4.08295 57.4579 3.50264 56 3.5V3.5Z" fill="#FFD164"/>
<path d="M60 16.3599H8C6.54131 16.3599 5.14236 16.9393 4.11091 17.9708C3.07946 19.0022 2.5 20.4012 2.5 21.8599V54.9999C2.50264 56.4577 3.08295 57.8552 4.11383 58.886C5.14471 59.9169 6.54212 60.4972 8 60.4999H56C57.4579 60.4972 58.8553 59.9169 59.8862 58.886C60.917 57.8552 61.4974 56.4577 61.5 54.9999V17.8599C61.5 17.462 61.342 17.0805 61.0607 16.7992C60.7794 16.5179 60.3978 16.3599 60 16.3599Z" fill="#F8B64C"/>
</svg>
