<?xml version="1.0" encoding="iso-8859-1"?>
<!-- Generator: Adobe Illustrator 21.0.0, SVG Export Plug-In . SVG Version: 6.00 Build 0)  -->
<svg version="1.1" id="Layer_1" xmlns="http://www.w3.org/2000/svg" xmlns:xlink="http://www.w3.org/1999/xlink" x="0px" y="0px"
	 viewBox="0 0 24 24" enable-background="new 0 0 24 24" xml:space="preserve">
<g>
	<path fill="#303C42" d="M0,19.845871c0,0.5556641,0.2163086,1.0776367,0.609375,1.4707031l1.0742188,1.0742188
		c0.3930664,0.3930664,0.9150391,0.609375,1.4707031,0.609375c0.6967773,0,1.34375-0.3461914,1.730957-0.9257813
		c0.984375-1.4770508,2.203125-2.765625,3.6225586-3.8300781c1.2387695-0.9291992,2.2827148-2.065918,3.1030273-3.3784189
		l1.2828979-2.0524292l1.9597778-1.9597778c0.6025391-0.6015625,1.8984375-1.0776367,3.1108398-0.7709961
		C18.5737305,10.271163,19,10.8434286,19,11.5001669c0,0.1035156-0.0136719,0.2133789-0.0415039,0.3354492
		c-0.0375977,0.1674805,0.0126953,0.3427734,0.1342773,0.4643555l1.0537109,1.0537109
		c0.0976563,0.0976563,0.2255859,0.1464844,0.3535156,0.1464844s0.2558594-0.0488281,0.3535156-0.1464844l3-3
		c0.1953125-0.1953125,0.1953125-0.5117188,0-0.7070313l-1.0537109-1.0537109
		c-0.1206055-0.121582-0.2963867-0.1733398-0.4643555-0.1342773C22.2133789,8.486495,22.1035156,8.5001669,22,8.5001669
		c-0.8271484,0-1.5-0.6728511-1.5-1.4999995c0-0.1074219,0.015625-0.2216797,0.0498047-0.3598633
		c0.0415039-0.1679688-0.0068359-0.3452148-0.1279297-0.4692383l-2.7509766-2.8129883
		C16.1450195,1.8321985,14.1362305,1.0001673,12,1.0001673c-1.6181641,0-2.6884766,0.5351563-3.7236328,1.0527345
		C8.0688477,2.1564174,7.9599609,2.3893275,8.0131836,2.6149135S8.2680664,3.0001674,8.5,3.0001674
		c2.2929688,0,3.1518555,0.8588867,4.1464844,1.8535156c0.7358398,0.7358398,0.1083984,2.6845703-0.5,3.2929683
		l-1.9597778,1.9597778L8.1342773,11.389327c-1.3125,0.8203125-2.4492188,1.8642578-3.378418,3.1025391
		c-1.0644531,1.4199219-2.3530273,2.6386728-3.8295898,3.6230478C0.3461914,18.502121,0,19.1490936,0,19.845871z"/>
	<path fill="#D7CCC8" d="M14.1464844,10.1466513L12.5,11.7931356l-1.2929688-1.2929688l1.6464844-1.6464844
		c0.9145508-0.9145503,1.7363281-3.4711909,0.5-4.7070308c-0.7304688-0.730957-1.5322266-1.5322266-2.953125-1.9160156
		C10.8735352,2.0890346,11.3920898,2.0001674,12,2.0001674c1.8691406,0,3.6269531,0.7280273,4.9487305,2.0498047l2.574707,2.6328125
		C19.5078125,6.7921596,19.5,6.89714,19.5,7.0001674c0,1.4692378,1.2573242,2.6743159,2.7758789,2.4829097l0.5170898,0.5170898
		L20.5,12.2931356l-0.5170898-0.5170898C19.9946289,11.6822958,20,11.5909872,20,11.5001669
		c0-1.0981445-0.7099609-2.0546875-1.7666016-2.3803711C16.6220703,8.7154989,14.9628906,9.330245,14.1464844,10.1466513z"/>
	<path fill="#FF8F00" d="M1,19.845871c0-0.3618164,0.1796875-0.6977539,0.4814453-0.8989258
		c1.5708008-1.0473633,2.9418945-2.3442383,4.0742188-3.8549814c0.8549805-1.1391602,1.9008789-2.0996094,3.1088867-2.8549805
		l1.7631836-1.1020508l1.4375,1.4375l-1.1020508,1.7631836c-0.7553711,1.2080078-1.7158203,2.2539072-2.8549805,3.1088877
		c-1.5107422,1.1323242-2.8076172,2.503418-3.8549805,4.074707c-0.3618164,0.5415039-1.2026367,0.625-1.6625977,0.1645508
		l-1.0742188-1.0742188C1.1123047,20.4054413,1,20.1344452,1,19.845871z"/>
	<polygon opacity="0.1" points="14.0214844,10.7280283 14.0214844,10.7280283 14.0214844,10.7280893 	"/>
	<path opacity="0.1" d="M22.2758789,9.4830332C20.7573242,9.6744394,19.5,8.4693613,19.5,7.0001225
		c0-0.1030273,0.0078125-0.2080078,0.0234375-0.3173828l-1.5852051-1.6209717l-6.0847778,6.0847783L12.5,11.7930918
		l1.6464844-1.6464844c0.8164063-0.8164063,2.4755859-1.4311523,4.0869141-1.0268555
		C19.2900391,9.4454355,20,10.4019785,20,11.500123c0,0.0908203-0.0053711,0.1821289-0.0170898,0.2758789L20.5,12.2930918
		l2.2929688-2.2929688L22.2758789,9.4830332z"/>
	<path opacity="0.1" d="M2.390625,21.6837158c0.4599609,0.4604492,1.3007813,0.3769531,1.6625977-0.1645508
		c1.0473633-1.5712891,2.3442383-2.9423828,3.8549805-4.074707c1.1391602-0.8549805,2.0996094-1.900878,2.8549805-3.1088858
		l1.1020508-1.7631836l-0.718811-0.718811l-9.2929688,9.2929678L2.390625,21.6837158z"/>
	<g>
		<path fill="#303C42" d="M23.1465015,18.4394627l-6.3632813-6.362793
			c-0.1298828-0.1298828-0.3208008-0.1791992-0.4970703-0.1254883c-0.1108398,0.0332031-0.2016602,0.0488281-0.2861328,0.0488281
			c-0.5512695,0-1-0.4487305-1-1c0-0.0844727,0.015625-0.175293,0.0488281-0.2856445
			c0.0532227-0.1762695,0.0053711-0.3676758-0.125-0.4980469l-0.7163086-0.7158203
			c-0.644043-0.6450195-1.7695313-0.6455078-2.4145508-0.0004883l-0.0429688,0.0429688l-5.75-5.75V3.0800879
			c0-0.5366211-0.2895508-1.0356445-0.7558594-1.3022461L2.248064,0.0659278
			C2.1694717,0.020571,2.082895-0.0005028,1.9971098,0.0000098c-0.1284686,0.0007676-0.2551626,0.050746-0.3506082,0.1464844
			l-1.5,1.5c-0.159668,0.1591797-0.1923828,0.4057617-0.0805664,0.6015625l1.7119141,2.996094
			C2.0444508,5.7104592,2.5439625,6.00001,3.0805836,6.00001h0.7124023l5.75,5.7499995L9.5005054,11.79249
			c-0.3227539,0.3222656-0.5004883,0.7509766-0.5004883,1.2075195c0,0.4560547,0.1777344,0.8847656,0.5,1.2070313
			l0.7167969,0.7163086c0.1308594,0.1308594,0.3212891,0.1796875,0.4970703,0.1254883
			c0.1108398-0.0332031,0.2016602-0.0488281,0.2861328-0.0488281c0.5512695,0,1,0.4487305,1,1
			c0,0.0844727-0.015625,0.1748047-0.0488281,0.284668c-0.0537109,0.1762695-0.0053711,0.3681641,0.125,0.4985352
			l6.3632813,6.3632813c0.5424805,0.5424805,1.293457,0.8535156,2.0605469,0.8535156s1.5180664-0.3110352,2.0605469-0.8535156
			l0.5859375-0.5859375c0.5424805-0.5424805,0.8535156-1.293457,0.8535156-2.0605469S23.688982,18.9819431,23.1465015,18.4394627z"
			/>
		<path fill="#D7CCC8" d="M4.3535328,5.1464944C4.2597828,5.0527444,4.1328297,5.00001,4.0000172,5.00001H3.0805836
			c-0.1791992,0-0.3457031-0.0966797-0.4345703-0.2519531l-1.5224609-2.664551l0.9599609-0.9599609l2.6640625,1.5224609
			c0.1557617,0.0888672,0.2524414,0.2553711,0.2524414,0.434082V4.00001c0,0.1328125,0.0527344,0.2597656,0.1464844,0.3535156
			l5.8964844,5.8964839l-0.7929688,0.7929688L4.3535328,5.1464944z"/>
		<path fill="#1E88E5" d="M22.4394703,21.8535252l-0.5859375,0.5859375c-0.7128906,0.7128906-1.9941406,0.7128906-2.7070313,0
			l-6.1679688-6.1679688c0.0146484-0.0922852,0.0214844-0.1826172,0.0214844-0.2714844
			c0-1.1914063-1.0336914-2.1704102-2.2709961-1.9785156l-0.5219727-0.5214844
			c-0.1333008-0.1337891-0.2070313-0.3110352-0.2070313-0.5s0.0732422-0.3666992,0.2070313-0.5l2.2929688-2.2929688
			c0.2675781-0.2666016,0.7333984-0.2675781,1,0l0.5214844,0.5209961c-0.0141602,0.0927734-0.0214844,0.1831055-0.0214844,0.2719727
			c-0.0004883,1.190918,1.0219727,2.1738281,2.2709961,1.9785156l6.168457,6.1679688
			c0.3564453,0.3564453,0.5605469,0.8496094,0.5605469,1.3535156S22.7959156,21.4970798,22.4394703,21.8535252z"/>
		<polygon opacity="0.1" points="14.0215015,10.7280369 14.0215015,10.7280369 14.0215015,10.7280979 		"/>
		<path opacity="0.1" d="M1.1235523,2.0835059l1.5224609,2.664551C2.7348804,4.9033303,2.9013844,5.00001,3.0805836,5.00001
			h0.9194336c0.1328125,0,0.2597656,0.0527344,0.3535156,0.1464844l5.8964844,5.8964839l0.3964844-0.3964844L1.6035328,1.6035254
			L1.1235523,2.0835059z"/>
		<path opacity="0.1" d="M11.3535328,11.3535252l-1.1464844,1.1464844c-0.1337891,0.1333008-0.2070313,0.3110352-0.2070313,0.5
			s0.0737305,0.3662109,0.2070313,0.5l0.5219727,0.5214844c1.2373047-0.1918945,2.2709961,0.7871094,2.2709961,1.9785156
			c0,0.0888672-0.0068359,0.1791992-0.0214844,0.2714844l6.1679688,6.1679688c0.7128906,0.7128906,1.9941406,0.7128906,2.7070313,0
			l0.2929688-0.2929688L11.3535328,11.3535252z"/>
	</g>
	<linearGradient id="SVGID_1_" gradientUnits="userSpaceOnUse" x1="-2.4019458" y1="7.0398436" x2="24.6859779" y2="19.6711502">
		<stop  offset="0" style="stop-color:#FFFFFF;stop-opacity:0.2"/>
		<stop  offset="1" style="stop-color:#FFFFFF;stop-opacity:0"/>
	</linearGradient>
	<path fill="url(#SVGID_1_)" d="M16.7832031,12.0766611c-0.1298828-0.1298828-0.3208008-0.1791992-0.4970703-0.1254883
		C16.175293,11.984376,16.0844727,12.000001,16,12.000001c-0.5512695,0-1-0.4487305-1-1
		c0-0.0844727,0.015625-0.175293,0.0488281-0.2856445c0.0027466-0.0090332-0.0015259-0.0181885,0.0006714-0.0272827
		c0.6583252-0.5171509,1.8180542-0.8818359,2.914856-0.6044312C18.5737305,10.2711191,19,10.8433847,19,11.500123
		c0,0.1035156-0.0136719,0.2133789-0.0415039,0.3354492c-0.0375977,0.1674805,0.0126953,0.3427734,0.1342773,0.4643555
		l1.0537109,1.0537109C20.2441406,13.4512949,20.3720703,13.500123,20.5,13.500123s0.2558594-0.0488281,0.3535156-0.1464844l3-3
		c0.1953125-0.1953125,0.1953125-0.5117188,0-0.7070313l-1.0537109-1.0537109
		c-0.1206055-0.121582-0.2963867-0.1733398-0.4643555-0.1342773C22.2133789,8.4864511,22.1035156,8.500123,22,8.500123
		c-0.8271484,0-1.5-0.672852-1.5-1.5000005c0-0.1074219,0.015625-0.2216797,0.0498047-0.3598633
		c0.0415039-0.1679688-0.0068359-0.3452148-0.1279297-0.4692383l-2.7509766-2.812988
		C16.1450195,1.832154,14.1362305,1.0001228,12,1.0001228c-1.6181641,0-2.6884766,0.5351563-3.7236328,1.0527344
		C8.0688477,2.1563728,7.9599609,2.3892829,8.0131836,2.6148689S8.2680664,3.0001228,8.5,3.0001228
		c2.2929688,0,3.1518555,0.8588867,4.1464844,1.8535154c0.7358398,0.7358398,0.1083984,2.6845703-0.5,3.2929692L11.250061,9.0430307
		L6,3.7929695V3.0800788c0-0.5366211-0.2895508-1.0356445-0.7558594-1.3022461L2.2480469,0.0659186
		c-0.0786133-0.0453491-0.1651611-0.0664673-0.2509766-0.065918c-0.128418,0.0007324-0.255127,0.0507202-0.3505859,0.1464844
		l-1.5,1.5c-0.159668,0.1591797-0.1923828,0.4057617-0.0805664,0.6015625L1.777832,5.2441411
		c0.2666016,0.4663086,0.7661133,0.7558594,1.3027344,0.7558594h0.7124023l4.9862061,4.9862065l-0.6448975,0.4030762
		c-1.3125,0.8203125-2.4492188,1.8642578-3.378418,3.1025391c-1.0644531,1.4199219-2.3530273,2.6386709-3.8295898,3.6230459
		C0.3461914,18.5020752,0,19.1490479,0,19.8458252c0,0.5556641,0.2163086,1.0776367,0.609375,1.4707031l1.0742188,1.0742188
		c0.3930664,0.3930664,0.9150391,0.609375,1.4707031,0.609375c0.6967773,0,1.34375-0.3461914,1.730957-0.9257813
		c0.984375-1.4770508,2.203125-2.765625,3.6225586-3.8300781c1.1582031-0.8687744,2.1380615-1.925415,2.9321289-3.1309805
		C11.7682495,15.2774668,12,15.6087046,12,16c0,0.0844727-0.015625,0.1748047-0.0488281,0.284668
		c-0.0537109,0.1762695-0.0053711,0.3681641,0.125,0.4985352l6.3632813,6.3632813C18.9819336,23.6889648,19.7329102,24,20.5,24
		s1.5180664-0.3110352,2.0605469-0.8535156l0.5859375-0.5859375C23.6889648,22.0180664,24,21.2670898,24,20.5
		s-0.3110352-1.5180664-0.8535156-2.0605469L16.7832031,12.0766611z"/>
</g>
<g>
</g>
<g>
</g>
<g>
</g>
<g>
</g>
<g>
</g>
<g>
</g>
<g>
</g>
<g>
</g>
<g>
</g>
<g>
</g>
<g>
</g>
<g>
</g>
<g>
</g>
<g>
</g>
<g>
</g>
</svg>
