<?xml version="1.0" encoding="UTF-8" standalone="no"?> <svg id="Layer_1" data-name="Layer 1" xmlns="http://www.w3.org/2000/svg" viewBox="0 0 512 512"><defs><style>.cls-1{fill:#eaeff0;}.cls-2{fill:#bac2c6;}.cls-3{fill:#2d4a60;}.cls-4{fill:#263f52;}.cls-5{fill:#00cf66;}</style></defs><title>Printer</title><path class="cls-1" d="M373.333,42.667H138.667A21.356,21.356,0,0,0,117.333,64V170.667H394.667V64A21.356,21.356,0,0,0,373.333,42.667Z"/><rect class="cls-2" x="117.333" y="128" width="277.333" height="42.667"/><rect class="cls-3" x="42.667" y="149.333" width="426.667" height="245.333" rx="32" ry="32"/><path class="cls-4" d="M437.333,373.333H74.667a32,32,0,0,1-32-32v21.333a32,32,0,0,0,32,32H437.333a32,32,0,0,0,32-32V341.333A32,32,0,0,1,437.333,373.333Z"/><path class="cls-1" d="M117.333,298.667V448a21.354,21.354,0,0,0,21.333,21.333H373.333A21.354,21.354,0,0,0,394.667,448V298.667Z"/><path class="cls-2" d="M346.667,405.333H165.333a5.333,5.333,0,0,1,0-10.667H346.667a5.333,5.333,0,0,1,0,10.667Z"/><path class="cls-2" d="M346.667,437.333H165.333a5.333,5.333,0,0,1,0-10.667H346.667a5.333,5.333,0,0,1,0,10.667Z"/><path class="cls-2" d="M346.667,341.333H165.333a5.333,5.333,0,0,1,0-10.667H346.667a5.333,5.333,0,0,1,0,10.667Z"/><path class="cls-2" d="M346.667,373.333H165.333a5.333,5.333,0,0,1,0-10.667H346.667a5.333,5.333,0,0,1,0,10.667Z"/><rect class="cls-1" x="309.333" y="208" width="80" height="10.667" rx="5.333" ry="5.333"/><circle class="cls-5" cx="418.667" cy="213.333" r="8"/></svg>